<svg width="18" height="18" viewBox="0 0 18 18" fill="none" xmlns="http://www.w3.org/2000/svg">
<path fill-rule="evenodd" clip-rule="evenodd" d="M5.37195 0.252751C6.31035 0.209551 6.60955 0.199951 8.99995 0.199951C11.3904 0.199951 11.6896 0.210351 12.6272 0.252751C13.5648 0.295151 14.2048 0.444751 14.7648 0.661551C15.3512 0.883151 15.8832 1.22955 16.3232 1.67755C16.7712 2.11675 17.1168 2.64795 17.3376 3.23515C17.5552 3.79515 17.704 4.43515 17.7472 5.37115C17.7904 6.31115 17.8 6.61035 17.8 8.99995C17.8 11.3904 17.7896 11.6896 17.7472 12.628C17.7048 13.564 17.5552 14.204 17.3376 14.764C17.1167 15.3512 16.7706 15.8833 16.3232 16.3232C15.8832 16.7712 15.3512 17.1168 14.7648 17.3376C14.2048 17.5552 13.5648 17.704 12.6288 17.7472C11.6896 17.7904 11.3904 17.8 8.99995 17.8C6.60955 17.8 6.31035 17.7896 5.37195 17.7472C4.43595 17.7048 3.79595 17.5552 3.23595 17.3376C2.64869 17.1167 2.11661 16.7706 1.67675 16.3232C1.22906 15.8837 0.882603 15.3519 0.661551 14.7648C0.444751 14.2048 0.295951 13.5648 0.252751 12.6288C0.209551 11.6888 0.199951 11.3896 0.199951 8.99995C0.199951 6.60955 0.210351 6.31035 0.252751 5.37275C0.295151 4.43515 0.444751 3.79515 0.661551 3.23515C0.882929 2.64802 1.22965 2.1162 1.67755 1.67675C2.11678 1.22915 2.64833 0.882706 3.23515 0.661551C3.79515 0.444751 4.43515 0.295951 5.37115 0.252751H5.37195ZM12.556 1.83675C11.628 1.79435 11.3496 1.78555 8.99995 1.78555C6.65035 1.78555 6.37195 1.79435 5.44395 1.83675C4.58555 1.87595 4.11995 2.01915 3.80955 2.13995C3.39915 2.29995 3.10555 2.48955 2.79755 2.79755C2.50559 3.08159 2.2809 3.42738 2.13995 3.80955C2.01915 4.11995 1.87595 4.58555 1.83675 5.44395C1.79435 6.37195 1.78555 6.65035 1.78555 8.99995C1.78555 11.3496 1.79435 11.628 1.83675 12.556C1.87595 13.4144 2.01915 13.88 2.13995 14.1904C2.28075 14.572 2.50555 14.9184 2.79755 15.2024C3.08155 15.4944 3.42795 15.7192 3.80955 15.86C4.11995 15.9808 4.58555 16.124 5.44395 16.1632C6.37195 16.2056 6.64955 16.2144 8.99995 16.2144C11.3504 16.2144 11.628 16.2056 12.556 16.1632C13.4144 16.124 13.88 15.9808 14.1904 15.86C14.6008 15.7 14.8944 15.5104 15.2024 15.2024C15.4944 14.9184 15.7192 14.572 15.86 14.1904C15.9808 13.88 16.124 13.4144 16.1632 12.556C16.2056 11.628 16.2144 11.3496 16.2144 8.99995C16.2144 6.65035 16.2056 6.37195 16.1632 5.44395C16.124 4.58555 15.9808 4.11995 15.86 3.80955C15.7 3.39915 15.5104 3.10555 15.2024 2.79755C14.9183 2.50561 14.5725 2.28092 14.1904 2.13995C13.88 2.01915 13.4144 1.87595 12.556 1.83675ZM7.87595 11.7128C8.50368 11.9741 9.20265 12.0093 9.85349 11.8125C10.5043 11.6157 11.0667 11.1991 11.4444 10.6337C11.8222 10.0684 11.992 9.38945 11.9248 8.71284C11.8576 8.03622 11.5576 7.40393 11.076 6.92395C10.7689 6.61713 10.3977 6.3822 9.98902 6.23607C9.58031 6.08994 9.14429 6.03624 8.71235 6.07884C8.2804 6.12145 7.86327 6.25929 7.49099 6.48246C7.11872 6.70562 6.80055 7.00855 6.55939 7.36943C6.31824 7.73032 6.1601 8.14018 6.09636 8.56952C6.03263 8.99886 6.06487 9.43699 6.19078 9.85236C6.31669 10.2677 6.53314 10.65 6.82453 10.9717C7.11592 11.2934 7.47501 11.5465 7.87595 11.7128ZM5.80155 5.80155C6.22157 5.38153 6.72021 5.04835 7.26899 4.82104C7.81777 4.59373 8.40595 4.47673 8.99995 4.47673C9.59395 4.47673 10.1821 4.59373 10.7309 4.82104C11.2797 5.04835 11.7783 5.38153 12.1984 5.80155C12.6184 6.22157 12.9515 6.72021 13.1789 7.26899C13.4062 7.81777 13.5232 8.40595 13.5232 8.99995C13.5232 9.59395 13.4062 10.1821 13.1789 10.7309C12.9515 11.2797 12.6184 11.7783 12.1984 12.1984C11.3501 13.0466 10.1996 13.5232 8.99995 13.5232C7.80032 13.5232 6.64982 13.0466 5.80155 12.1984C4.95328 11.3501 4.47673 10.1996 4.47673 8.99995C4.47673 7.80032 4.95328 6.64982 5.80155 5.80155ZM14.5264 5.15035C14.6304 5.05217 14.7138 4.9341 14.7714 4.80313C14.829 4.67216 14.8598 4.53097 14.8619 4.3879C14.864 4.24482 14.8373 4.10279 14.7835 3.9702C14.7297 3.83761 14.6499 3.71716 14.5487 3.61598C14.4475 3.51481 14.3271 3.43496 14.1945 3.38117C14.0619 3.32737 13.9199 3.30073 13.7768 3.30282C13.6337 3.3049 13.4925 3.33567 13.3616 3.39331C13.2306 3.45094 13.1125 3.53427 13.0144 3.63835C12.8234 3.84077 12.7189 4.10965 12.7229 4.3879C12.727 4.66614 12.8393 4.93185 13.0361 5.12863C13.2328 5.3254 13.4986 5.43773 13.7768 5.44179C14.0551 5.44585 14.3239 5.3413 14.5264 5.15035Z" fill="#003BD4"/>
</svg>
