<svg width="19" height="17" viewBox="0 0 19 17" fill="none" xmlns="http://www.w3.org/2000/svg">
<path d="M17.0489 0.597132C16.8242 0.613481 16.6037 0.6662 16.3958 0.753232H16.393C16.1935 0.832332 15.245 1.23133 13.803 1.83613L8.63564 4.01243C4.92774 5.57343 1.28284 7.11063 1.28284 7.11063L1.32624 7.09383C1.32624 7.09383 1.07494 7.17643 0.812437 7.35633C0.650266 7.45953 0.510718 7.59455 0.402237 7.75323C0.273437 7.94223 0.169837 8.23133 0.208337 8.53023C0.271337 9.03563 0.598936 9.33873 0.834136 9.50603C1.07214 9.67543 1.29894 9.75453 1.29894 9.75453H1.30454L4.72264 10.906C4.87594 11.3981 5.76424 14.3185 5.97774 14.9912C6.10374 15.393 6.22624 15.6443 6.37954 15.8361C6.45374 15.9341 6.54054 16.016 6.64484 16.0818C6.69906 16.1134 6.75687 16.1383 6.81704 16.156L6.78204 16.1476C6.79254 16.1504 6.80094 16.1588 6.80864 16.1616C6.83664 16.1693 6.85554 16.1721 6.89124 16.1777C7.43234 16.3415 7.86704 16.0055 7.86704 16.0055L7.89154 15.9859L9.90964 14.1484L13.292 16.7433L13.369 16.7762C14.0739 17.0856 14.7879 16.9134 15.1652 16.6096C15.5453 16.3037 15.693 15.9124 15.693 15.9124L15.7175 15.8494L18.3313 2.45913C18.4055 2.12873 18.4244 1.81933 18.3425 1.51903C18.2581 1.21511 18.0631 0.953717 17.7958 0.786132C17.5714 0.649713 17.3112 0.583866 17.0489 0.597132ZM16.9782 2.03213C16.9754 2.07623 16.9838 2.07133 16.9642 2.15603V2.16373L14.3749 15.4147C14.3637 15.4336 14.3448 15.4749 14.293 15.5162C14.2384 15.5596 14.195 15.5869 13.9675 15.4966L9.83054 12.3249L7.33154 14.6027L7.85654 11.2497L14.6157 4.94973C14.8943 4.69073 14.8012 4.63613 14.8012 4.63613C14.8208 4.31833 14.3805 4.54303 14.3805 4.54303L5.85734 9.82313L5.85454 9.80913L1.76934 8.43363V8.43083L1.75884 8.42873C1.766 8.42635 1.77301 8.42355 1.77984 8.42033L1.80224 8.40913L1.82394 8.40143C1.82394 8.40143 5.47164 6.86423 9.17954 5.30323C11.0359 4.52133 12.9063 3.73383 14.3448 3.12623C15.198 2.76713 16.052 2.41013 16.9068 2.05523C16.9642 2.03283 16.9369 2.03283 16.9782 2.03283V2.03213Z" fill="#002C9C"/>
</svg>
